<?xml version="1.0" encoding="utf-8"?>
<!-- Generator: Adobe Illustrator 12.0.0, SVG Export Plug-In . SVG Version: 6.00 Build 51448)  -->
<!DOCTYPE svg PUBLIC "-//W3C//DTD SVG 1.1//EN" "http://www.w3.org/Graphics/SVG/1.1/DTD/svg11.dtd" [
	<!ENTITY ns_svg "http://www.w3.org/2000/svg">
	<!ENTITY ns_xlink "http://www.w3.org/1999/xlink">
]>
<svg  version="1.1" id="Ebene_1" xmlns="&ns_svg;" xmlns:xlink="&ns_xlink;" width="105.27" height="58.323"
	 viewBox="0 0 105.27 58.323" overflow="visible" enable-background="new 0 0 105.27 58.323" xml:space="preserve">
<line fill="none" stroke="#FF5A00" stroke-width="1.8" stroke-linejoin="bevel" x1="0.9" y1="2.324" x2="0.9" y2="56.622"/>
<line fill="none" stroke="#FF5A00" stroke-width="1.8" stroke-linejoin="bevel" x1="4.604" y1="2.324" x2="4.605" y2="56.622"/>
<line fill="none" stroke="#FF5A00" stroke-width="1.8" stroke-linejoin="bevel" x1="9.537" y1="2.216" x2="9.537" y2="56.622"/>
<line fill="none" stroke="#FF5A00" stroke-width="1.8" stroke-linejoin="bevel" x1="13.959" y1="2.216" x2="13.959" y2="56.622"/>
<polyline fill="none" stroke="#FF5A00" stroke-width="1.8" stroke-linejoin="bevel" points="24.974,10.119 19.055,0.69 
	19.056,57.646 26.723,50.928 "/>
<polyline fill="none" stroke="#FF5A00" stroke-width="1.8" stroke-linejoin="bevel" points="35.37,10.805 29.508,0.443 
	29.507,57.647 37.059,50.928 "/>
<line fill="none" stroke="#FF5A00" stroke-width="1.8" stroke-linejoin="bevel" x1="43.45" y1="1.605" x2="43.461" y2="56.622"/>
<path fill="#1A171B" d="M51.535,43.72c0,2.592,0.552,5.898,3.716,5.898c1.306,0,2.264-0.566,3.077-1.579l1.335,1.072
	c-1.249,1.579-2.526,2.174-4.471,2.174c-3.687,0-5.603-3.574-5.603-7c0-1.728,0.174-3.664,1.248-5.421
	c1.132-1.817,2.7-2.442,4.268-2.442c4.296,0,4.819,3.842,4.964,7.297H51.535z M58.096,42.291c0-0.536,0.029-1.817-0.581-2.859
	c-0.581-0.983-1.625-1.37-2.497-1.37c-1.655,0-3.165,1.162-3.426,4.229H58.096z"/>
<path fill="#1A171B" d="M62.561,36.84h9.609v1.698l-6.039,8.698c-0.667,0.953-0.929,1.311-1.248,1.698
	c-0.291,0.328-0.319,0.417-0.319,0.477c0,0.089,0.145,0.119,0.29,0.119h7.316v1.579h-9.812v-1.549l5.574-8.162
	c0.61-0.923,1.277-1.787,2.003-2.621v-0.208h-7.374V36.84z"/>
<path fill="#1A171B" d="M76.339,31.329h4.993c2.671,0,5.196,0.357,7.112,3.485c1.249,2.085,1.423,4.379,1.423,6.553
	c0,2.77-0.784,5.362-2.41,7.328c-1.887,2.234-4.296,2.413-6.706,2.413h-4.413V31.329z M78.342,49.32h2.729
	c2.555,0,4.354-0.447,5.69-2.889c0.987-1.788,1.161-4.498,1.161-5.213c0-3.187-0.726-5.809-2.816-7.208
	c-1.422-0.953-2.206-0.953-6.764-0.953V49.32z"/>
<path fill="#1A171B" d="M95.399,49.32h9.87v1.787H93.396V31.329h2.003V49.32z"/>
</svg>
