<?xml version="1.0" encoding="utf-8"?>
<!-- Generator: Adobe Illustrator 12.0.0, SVG Export Plug-In . SVG Version: 6.00 Build 51448)  -->
<!DOCTYPE svg PUBLIC "-//W3C//DTD SVG 1.1//EN" "http://www.w3.org/Graphics/SVG/1.1/DTD/svg11.dtd" [
	<!ENTITY ns_svg "http://www.w3.org/2000/svg">
	<!ENTITY ns_xlink "http://www.w3.org/1999/xlink">
]>
<svg  version="1.1" id="Ebene_1" xmlns="&ns_svg;" xmlns:xlink="&ns_xlink;" width="184.732" height="58.323"
	 viewBox="0 0 184.732 58.323" overflow="visible" enable-background="new 0 0 184.732 58.323" xml:space="preserve">
<line fill="none" stroke="#000000" stroke-width="1.8" stroke-linejoin="bevel" x1="80.363" y1="2.324" x2="80.363" y2="56.622"/>
<line fill="none" stroke="#000000" stroke-width="1.8" stroke-linejoin="bevel" x1="84.066" y1="2.324" x2="84.068" y2="56.622"/>
<line fill="none" stroke="#000000" stroke-width="1.8" stroke-linejoin="bevel" x1="89" y1="2.216" x2="89" y2="56.622"/>
<line fill="none" stroke="#000000" stroke-width="1.8" stroke-linejoin="bevel" x1="93.422" y1="2.216" x2="93.422" y2="56.622"/>
<polyline fill="none" stroke="#000000" stroke-width="1.8" stroke-linejoin="bevel" points="104.437,10.119 98.518,0.69 
	98.519,57.646 106.186,50.928 "/>
<polyline fill="none" stroke="#000000" stroke-width="1.8" stroke-linejoin="bevel" points="114.833,10.805 108.971,0.443 
	108.97,57.647 116.521,50.928 "/>
<line fill="none" stroke="#000000" stroke-width="1.8" stroke-linejoin="bevel" x1="122.913" y1="1.605" x2="122.924" y2="56.622"/>
<path fill="#1A171B" d="M130.998,43.72c0,2.592,0.552,5.898,3.716,5.898c1.306,0,2.264-0.566,3.077-1.579l1.335,1.072
	c-1.249,1.579-2.526,2.174-4.471,2.174c-3.687,0-5.603-3.574-5.603-7c0-1.728,0.174-3.664,1.248-5.421
	c1.132-1.817,2.7-2.442,4.268-2.442c4.296,0,4.819,3.842,4.964,7.297H130.998z M137.559,42.291c0-0.536,0.029-1.817-0.581-2.859
	c-0.581-0.983-1.625-1.37-2.497-1.37c-1.655,0-3.165,1.162-3.426,4.229H137.559z"/>
<path fill="#1A171B" d="M142.024,36.84h9.609v1.698l-6.039,8.698c-0.667,0.953-0.929,1.311-1.248,1.698
	c-0.291,0.328-0.319,0.417-0.319,0.477c0,0.089,0.145,0.119,0.29,0.119h7.316v1.579h-9.812v-1.549l5.574-8.162
	c0.61-0.923,1.277-1.787,2.003-2.621v-0.208h-7.374V36.84z"/>
<path fill="#1A171B" d="M155.802,31.329h4.993c2.671,0,5.196,0.357,7.112,3.485c1.249,2.085,1.423,4.379,1.423,6.553
	c0,2.77-0.784,5.362-2.41,7.328c-1.887,2.234-4.296,2.413-6.706,2.413h-4.413V31.329z M157.805,49.32h2.729
	c2.555,0,4.354-0.447,5.69-2.889c0.987-1.788,1.161-4.498,1.161-5.213c0-3.187-0.726-5.809-2.816-7.208
	c-1.422-0.953-2.206-0.953-6.764-0.953V49.32z"/>
<path fill="#1A171B" d="M174.862,49.32h9.87v1.787h-11.874V31.329h2.003V49.32z"/>
<g>
	<path fill="#1A171B" d="M6.871,30.521h4.43v0.629h-3.7v2.451h3.182v0.662H7.601v2.81h3.816v0.651H6.871V30.521z"/>
	<path fill="#1A171B" d="M16.228,33.874c0-0.336,0-0.879-0.973-0.879c-0.571,0-1.015,0.239-1.522,0.564l-0.296-0.683
		c0.835-0.412,1.237-0.51,1.85-0.51c0.233,0,0.772,0.021,1.152,0.314c0.497,0.379,0.497,0.835,0.497,1.117v2.875
		c0,0.293,0.106,0.412,0.169,0.466c0.095,0.076,0.126,0.076,0.423,0.076v0.597c-0.392,0-0.613,0-0.804-0.12
		c-0.286-0.173-0.412-0.596-0.412-0.781c0-0.076,0-0.087-0.011-0.12c-0.011,0-0.021-0.011-0.032-0.011s-0.021,0-0.032,0.011
		c-0.518,0.597-0.994,1.009-1.808,1.009c-0.613,0-0.888-0.207-1.089-0.423c-0.306-0.336-0.37-0.781-0.37-0.955
		c0-0.998,0.75-1.442,1.099-1.595c0.708-0.314,1.396-0.314,2.157-0.314V33.874z M16.207,34.958c-0.55,0-1.1,0.011-1.607,0.228
		c-0.518,0.217-0.909,0.607-0.909,1.182c0,0.239,0.116,0.857,0.898,0.857c0.645,0,1.406-0.738,1.618-0.987V34.958z"/>
	<path fill="#1A171B" d="M18.564,36.618c0.381,0.347,0.835,0.618,1.364,0.618c0.698,0,1.079-0.379,1.079-0.878
		c0-0.358-0.233-0.64-0.55-0.781c-0.127-0.054-1.163-0.477-1.385-0.585c-0.169-0.076-0.719-0.358-0.719-1.15
		c0-0.922,0.666-1.464,1.543-1.464c0.561,0,0.983,0.163,1.48,0.401l-0.222,0.64c-0.381-0.292-0.825-0.466-1.311-0.466
		c-0.423,0-0.846,0.26-0.846,0.738c0,0.521,0.296,0.651,1.237,1.03c0.804,0.326,1.375,0.575,1.375,1.551
		c0,1.042-0.772,1.519-1.702,1.519c-0.656,0-1.089-0.163-1.618-0.553L18.564,36.618z"/>
	<path fill="#1A171B" d="M22.434,38.462h0.222c0.084,0.152,0.169,0.304,0.508,0.304c0.687,0,0.824-0.9,1.004-1.389l-1.787-4.849
		h0.751l1.015,2.864c0.042,0.13,0.127,0.369,0.211,0.607c0.063,0.195,0.106,0.391,0.169,0.391c0.074,0,0.105-0.304,0.338-0.998
		l0.941-2.864h0.667l-1.808,5.358c-0.264,0.781-0.634,1.573-1.554,1.573c-0.275,0-0.433-0.054-0.676-0.163V38.462z"/>
	<path fill="#1A171B" d="M30.373,37.724l2.728-7.311h0.74l2.707,7.311h-0.793l-0.634-1.757h-3.33l-0.634,1.757H30.373z
		 M34.919,35.359l-1.396-3.905c-0.011-0.022-0.021-0.033-0.053-0.033s-0.042,0.033-0.053,0.054l-1.417,3.883H34.919z"/>
	<path fill="#1A171B" d="M40.596,33.743c-0.084-0.185-0.349-0.77-1.036-0.77c-1.1,0-1.322,1.291-1.322,2.213
		c0,0.314,0.011,0.9,0.307,1.388c0.328,0.542,0.825,0.629,1.025,0.629c0.719,0,0.931-0.542,1.036-0.813l0.729,0.325
		c-0.338,0.792-1.025,1.096-1.829,1.096c-0.941,0-1.987-0.727-1.987-2.788c0-1.508,0.825-2.657,2.041-2.657
		c0.867,0,1.226,0.292,1.628,1.041L40.596,33.743z"/>
	<path fill="#1A171B" d="M45.396,33.743c-0.084-0.185-0.349-0.77-1.036-0.77c-1.1,0-1.322,1.291-1.322,2.213
		c0,0.314,0.011,0.9,0.307,1.388c0.328,0.542,0.825,0.629,1.025,0.629c0.719,0,0.931-0.542,1.036-0.813l0.729,0.325
		c-0.338,0.792-1.025,1.096-1.829,1.096c-0.941,0-1.987-0.727-1.987-2.788c0-1.508,0.825-2.657,2.041-2.657
		c0.867,0,1.226,0.292,1.628,1.041L45.396,33.743z"/>
	<path fill="#1A171B" d="M47.742,35.034c0,0.943,0.201,2.147,1.354,2.147c0.476,0,0.824-0.206,1.121-0.575l0.486,0.391
		c-0.455,0.575-0.92,0.792-1.628,0.792c-1.342,0-2.04-1.302-2.04-2.549c0-0.629,0.063-1.334,0.455-1.975
		c0.412-0.662,0.983-0.889,1.554-0.889c1.565,0,1.755,1.399,1.808,2.658H47.742z M50.132,34.513c0-0.195,0.01-0.662-0.212-1.041
		c-0.211-0.358-0.592-0.499-0.909-0.499c-0.603,0-1.152,0.423-1.248,1.54H50.132z"/>
	<path fill="#1A171B" d="M52.151,36.618c0.381,0.347,0.835,0.618,1.364,0.618c0.698,0,1.079-0.379,1.079-0.878
		c0-0.358-0.233-0.64-0.55-0.781c-0.127-0.054-1.163-0.477-1.385-0.585c-0.169-0.076-0.719-0.358-0.719-1.15
		c0-0.922,0.666-1.464,1.543-1.464c0.561,0,0.983,0.163,1.48,0.401l-0.222,0.64c-0.381-0.292-0.825-0.466-1.311-0.466
		c-0.423,0-0.846,0.26-0.846,0.738c0,0.521,0.296,0.651,1.237,1.03c0.804,0.326,1.375,0.575,1.375,1.551
		c0,1.042-0.772,1.519-1.702,1.519c-0.656,0-1.089-0.163-1.618-0.553L52.151,36.618z"/>
	<path fill="#1A171B" d="M56.369,36.618c0.381,0.347,0.835,0.618,1.364,0.618c0.698,0,1.079-0.379,1.079-0.878
		c0-0.358-0.233-0.64-0.55-0.781c-0.127-0.054-1.163-0.477-1.385-0.585c-0.169-0.076-0.719-0.358-0.719-1.15
		c0-0.922,0.666-1.464,1.543-1.464c0.561,0,0.983,0.163,1.48,0.401l-0.222,0.64c-0.381-0.292-0.825-0.466-1.311-0.466
		c-0.423,0-0.846,0.26-0.846,0.738c0,0.521,0.296,0.651,1.237,1.03c0.804,0.326,1.375,0.575,1.375,1.551
		c0,1.042-0.772,1.519-1.702,1.519c-0.656,0-1.089-0.163-1.618-0.553L56.369,36.618z"/>
	<path fill="#1A171B" d="M63.061,32.756h0.93v-1.312l0.698-0.878v2.191h1.121v0.553h-1.121v3.113c0,0.369,0,0.803,0.476,0.803
		c0.328,0,0.782-0.217,1.036-0.401v0.672c-0.307,0.195-0.814,0.347-1.173,0.347c-0.772,0-1.036-0.575-1.036-1.291v-3.244h-0.93
		V32.756z"/>
	<path fill="#1A171B" d="M69.161,37.822c-1.469,0-1.998-1.399-1.998-2.723c0-1.28,0.571-2.712,2.03-2.712
		c1.522,0,2.062,1.421,2.062,2.777C71.254,36.661,70.757,37.822,69.161,37.822z M69.203,33.017c-1.163,0-1.343,1.367-1.343,2.267
		c0,0.868,0.402,1.909,1.396,1.909c1.025,0,1.3-1.106,1.3-1.974C70.556,34.318,70.324,33.017,69.203,33.017z"/>
	<path fill="#1A171B" d="M0,43.538h1.818c0.973,0,1.893,0.13,2.59,1.269c0.455,0.759,0.518,1.595,0.518,2.387
		c0,1.009-0.286,1.952-0.877,2.668c-0.688,0.813-1.565,0.878-2.442,0.878H0V43.538z M0.729,50.09h0.994
		c0.931,0,1.586-0.163,2.072-1.052c0.359-0.651,0.423-1.638,0.423-1.898c0-1.161-0.264-2.115-1.025-2.625
		c-0.518-0.347-0.804-0.347-2.463-0.347V50.09z"/>
	<path fill="#1A171B" d="M6.767,43.43h0.93v1.084h-0.93V43.43z M7.57,45.545v5.196H6.915v-5.196H7.57z"/>
	<path fill="#1A171B" d="M12.34,45.523h0.624v4.361c0,1.226-0.18,2.462-2.136,2.462c-0.55,0-0.92-0.087-1.184-0.206v-0.716h0.391
		c0.243,0.217,0.444,0.369,0.973,0.369c0.952,0,1.248-0.64,1.248-1.432v-0.889c0-0.022-0.011-0.087-0.053-0.087
		c-0.011,0-0.021,0-0.032,0.011c-0.19,0.586-0.814,0.879-1.375,0.879c-1.173,0-1.776-1.302-1.776-2.354
		c0-1.747,0.877-2.473,1.787-2.473s1.3,0.683,1.406,0.965c0.021,0.054,0.032,0.065,0.085,0.076c0.021-0.022,0.042-0.033,0.042-0.076
		V45.523z M12.298,47.877c0-1.117-0.561-1.866-1.332-1.866c-0.888,0-1.248,0.998-1.248,1.67c0,0.445,0,1.996,1.258,1.996
		C11.769,49.678,12.298,48.842,12.298,47.877z"/>
	<path fill="#1A171B" d="M14.362,43.43h0.93v1.084h-0.93V43.43z M15.165,45.545v5.196H14.51v-5.196H15.165z"/>
	<path fill="#1A171B" d="M16.529,45.772h0.93V44.46l0.698-0.878v2.191h1.121v0.553h-1.121v3.113c0,0.369,0,0.803,0.476,0.803
		c0.328,0,0.782-0.217,1.036-0.401v0.672c-0.306,0.195-0.814,0.347-1.173,0.347c-0.772,0-1.036-0.575-1.036-1.291v-3.244h-0.93
		V45.772z"/>
	<path fill="#1A171B" d="M23.75,46.89c0-0.336,0-0.879-0.973-0.879c-0.571,0-1.015,0.239-1.522,0.564l-0.296-0.683
		c0.835-0.412,1.237-0.51,1.85-0.51c0.233,0,0.772,0.021,1.152,0.314c0.497,0.379,0.497,0.835,0.497,1.117v2.875
		c0,0.293,0.106,0.412,0.169,0.466c0.095,0.076,0.126,0.076,0.423,0.076v0.597c-0.391,0-0.613,0-0.804-0.12
		c-0.286-0.173-0.412-0.596-0.412-0.781c0-0.076,0-0.087-0.011-0.12c-0.011,0-0.021-0.011-0.032-0.011s-0.021,0-0.032,0.011
		c-0.518,0.597-0.994,1.009-1.808,1.009c-0.613,0-0.888-0.207-1.089-0.423c-0.306-0.336-0.37-0.781-0.37-0.955
		c0-0.998,0.75-1.442,1.099-1.595c0.708-0.314,1.396-0.314,2.157-0.314V46.89z M23.729,47.975c-0.55,0-1.1,0.011-1.607,0.228
		c-0.518,0.217-0.909,0.607-0.909,1.182c0,0.239,0.116,0.857,0.898,0.857c0.645,0,1.406-0.738,1.618-0.987V47.975z"/>
	<path fill="#1A171B" d="M26.562,43.484l0.656-0.347v7.604h-0.656V43.484z"/>
	<path fill="#1A171B" d="M33.655,50.09h3.595v0.651h-4.324v-7.203h0.729V50.09z"/>
	<path fill="#1A171B" d="M39.047,43.43h0.93v1.084h-0.93V43.43z M39.851,45.545v5.196h-0.655v-5.196H39.851z"/>
	<path fill="#1A171B" d="M42.515,43.061v3.297c0,0.043,0.032,0.098,0.074,0.098c0.063,0,0.074-0.043,0.105-0.098
		c0.211-0.391,0.518-0.944,1.322-0.944c0.539,0,1.818,0.314,1.818,2.647c0,0.379-0.042,1.28-0.423,1.931
		c-0.455,0.792-1.11,0.813-1.417,0.813c-0.645,0-1.004-0.423-1.205-0.716c-0.032-0.054-0.169-0.314-0.211-0.314
		c-0.032,0-0.084,0-0.084,0.108v0.976l-0.677-0.39v-7.019L42.515,43.061z M45.137,48.137c0-0.379,0-2.115-1.216-2.115
		c-0.772,0-1.417,0.857-1.417,2.148c0,0.987,0.497,2.039,1.396,2.039C44.84,50.209,45.137,49.081,45.137,48.137z"/>
	<path fill="#1A171B" d="M47.368,45.816l0.687-0.369v1.898c0,0.054,0.021,0.065,0.032,0.065c0.254,0,0.655-1.421,2.125-1.953v1.215
		c-1.025,0-1.564,0.521-2.136,1.345v2.723h-0.708V45.816z"/>
	<path fill="#1A171B" d="M54.209,46.89c0-0.336,0-0.879-0.973-0.879c-0.571,0-1.015,0.239-1.522,0.564l-0.296-0.683
		c0.835-0.412,1.237-0.51,1.85-0.51c0.233,0,0.772,0.021,1.152,0.314c0.497,0.379,0.497,0.835,0.497,1.117v2.875
		c0,0.293,0.106,0.412,0.169,0.466c0.095,0.076,0.126,0.076,0.423,0.076v0.597c-0.391,0-0.613,0-0.804-0.12
		c-0.286-0.173-0.412-0.596-0.412-0.781c0-0.076,0-0.087-0.011-0.12c-0.011,0-0.021-0.011-0.032-0.011s-0.021,0-0.032,0.011
		c-0.518,0.597-0.994,1.009-1.808,1.009c-0.613,0-0.888-0.207-1.089-0.423c-0.306-0.336-0.37-0.781-0.37-0.955
		c0-0.998,0.75-1.442,1.099-1.595c0.708-0.314,1.396-0.314,2.157-0.314V46.89z M54.188,47.975c-0.55,0-1.1,0.011-1.607,0.228
		c-0.518,0.217-0.909,0.607-0.909,1.182c0,0.239,0.116,0.857,0.898,0.857c0.645,0,1.406-0.738,1.618-0.987V47.975z"/>
	<path fill="#1A171B" d="M56.769,45.816l0.687-0.369v1.898c0,0.054,0.021,0.065,0.032,0.065c0.254,0,0.655-1.421,2.125-1.953v1.215
		c-1.025,0-1.564,0.521-2.136,1.345v2.723h-0.708V45.816z"/>
	<path fill="#1A171B" d="M60.893,43.43h0.93v1.084h-0.93V43.43z M61.696,45.545v5.196h-0.655v-5.196H61.696z"/>
	<path fill="#1A171B" d="M63.991,48.051c0,0.943,0.201,2.147,1.354,2.147c0.476,0,0.824-0.206,1.121-0.575l0.486,0.391
		c-0.455,0.575-0.92,0.792-1.628,0.792c-1.342,0-2.041-1.302-2.041-2.549c0-0.629,0.063-1.334,0.455-1.975
		c0.412-0.662,0.983-0.889,1.554-0.889c1.565,0,1.755,1.399,1.808,2.658H63.991z M66.38,47.53c0-0.195,0.011-0.662-0.211-1.041
		c-0.211-0.358-0.592-0.499-0.909-0.499c-0.603,0-1.152,0.423-1.248,1.54H66.38z"/>
	<path fill="#1A171B" d="M68.399,49.634c0.381,0.347,0.835,0.618,1.364,0.618c0.698,0,1.079-0.379,1.079-0.878
		c0-0.358-0.233-0.64-0.55-0.781c-0.127-0.054-1.163-0.477-1.385-0.585c-0.169-0.076-0.719-0.358-0.719-1.15
		c0-0.922,0.666-1.464,1.543-1.464c0.561,0,0.983,0.163,1.48,0.401l-0.222,0.64c-0.381-0.292-0.825-0.466-1.311-0.466
		c-0.423,0-0.846,0.26-0.846,0.738c0,0.521,0.296,0.651,1.237,1.03c0.804,0.326,1.375,0.575,1.375,1.551
		c0,1.042-0.772,1.519-1.702,1.519c-0.656,0-1.089-0.163-1.618-0.553L68.399,49.634z"/>
</g>
</svg>
